<svg width="249" height="120" viewBox="0 0 249 120" fill="none" xmlns="http://www.w3.org/2000/svg">
<g id="Group 2">
<g id="Ride">
<path d="M62.8183 96.6487C62.5973 96.6487 62.4868 96.5102 62.4868 96.2331L62.6526 39.1182C62.6526 38.8965 62.7631 38.7857 62.9841 38.7857H79.7254C82.709 38.7857 85.4439 39.5339 87.9303 41.0304C90.4719 42.4714 92.4885 44.439 93.9803 46.9331C95.4721 49.3717 96.218 52.143 96.218 55.2467C96.218 57.2974 95.9142 59.1542 95.3064 60.8169C94.6986 62.4242 93.9803 63.8098 93.1516 64.9737C92.3228 66.0822 91.5769 66.9136 90.9139 67.4678C93.8975 70.7933 95.3893 74.7007 95.3893 79.1901L95.4721 96.2331C95.4721 96.5102 95.334 96.6487 95.0578 96.6487H85.6926C85.4716 96.6487 85.3611 96.5656 85.3611 96.3993V79.1901C85.3611 77.1948 84.6428 75.4766 83.2062 74.0356C81.8249 72.5391 80.1121 71.7909 78.0678 71.7909H72.5979L72.515 96.2331C72.515 96.5102 72.4045 96.6487 72.1835 96.6487H62.8183ZM72.5979 61.8145H79.7254C81.4382 61.8145 82.9576 61.1771 84.2837 59.9024C85.6097 58.6276 86.2727 57.0757 86.2727 55.2467C86.2727 53.4732 85.6097 51.949 84.2837 50.6742C83.0129 49.3995 81.4934 48.7621 79.7254 48.7621H72.5979V61.8145Z" fill="#FBA403"/>
<path d="M102.883 96.6487C102.607 96.6487 102.469 96.5102 102.469 96.2331L102.552 39.1182C102.552 38.8965 102.662 38.7857 102.883 38.7857H112.166C112.387 38.7857 112.497 38.8965 112.497 39.1182L112.58 96.2331C112.58 96.5102 112.469 96.6487 112.248 96.6487H102.883Z" fill="#FBA403"/>
<path d="M120.284 96.6487C120.008 96.6487 119.87 96.5102 119.87 96.2331L120.036 39.1182C120.036 38.8965 120.146 38.7857 120.367 38.7857L135.865 38.7026C138.904 38.6471 141.667 39.3676 144.153 40.8641C146.695 42.3606 148.711 44.3836 150.203 46.9331C151.695 49.4272 152.441 52.1984 152.441 55.2467V79.1069C152.441 82.3215 151.667 85.259 150.12 87.9194C148.573 90.5243 146.501 92.6028 143.904 94.1546C141.308 95.7065 138.379 96.5102 135.119 96.5656L120.284 96.6487ZM129.981 86.4229H135.119C137.164 86.4229 138.877 85.7024 140.258 84.2614C141.694 82.8204 142.413 81.1022 142.413 79.1069V55.1636C142.413 53.39 141.75 51.8658 140.424 50.5911C139.153 49.2609 137.633 48.6235 135.865 48.6789L130.064 48.7621L129.981 86.4229Z" fill="#FBA403"/>
<path d="M159.293 96.6487C159.072 96.6487 158.962 96.5102 158.962 96.2331L159.045 39.1182C159.045 38.8965 159.155 38.7857 159.376 38.7857H185.98C186.201 38.7857 186.311 38.9242 186.311 39.2014V48.5127C186.311 48.7344 186.201 48.8452 185.98 48.8452H168.99V61.8145H185.98C186.201 61.8145 186.311 61.9254 186.311 62.1471L186.394 71.5415C186.394 71.7632 186.284 71.8741 186.063 71.8741H168.99V86.4229H186.063C186.284 86.4229 186.394 86.5615 186.394 86.8386C186.394 87.1157 186.394 96.3162 186.394 96.3162C186.394 96.5379 186.284 96.6487 186.063 96.6487C185.842 96.6487 159.293 96.6487 159.293 96.6487Z" fill="#FBA403"/>
</g>
<g id="My">
<path d="M115.409 16.3671L115.434 15.5136C115.45 14.978 115.5 14.3923 115.584 13.7563L115.784 12.2751C115.826 11.9237 115.867 11.6057 115.909 11.3212C115.117 12.1914 114.478 12.8693 113.995 13.3546L112.556 14.7605C109.335 17.7814 107.417 19.2918 106.8 19.2918C105.89 19.2918 104.935 19.0951 103.934 18.7018C103.392 18.4843 103.083 18.2583 103.008 18.024C102.891 17.7311 102.833 17.3337 102.833 16.8316C102.833 16.3211 102.85 15.8525 102.883 15.4257C102.916 14.9989 102.958 14.5764 103.008 14.1579C103.058 13.7312 103.108 13.3253 103.158 12.9404C103.217 12.5471 103.262 12.204 103.296 11.9111C103.379 11.25 103.396 10.9195 103.346 10.9195L98.691 16.6558C96.497 19.2416 95.2499 20.6725 94.9496 20.9487C94.3073 21.5345 93.5982 21.8273 92.8224 21.8273C92.4386 21.8273 92.1216 21.7311 91.8714 21.5386C91.6211 21.3462 91.496 21.1077 91.496 20.8232C91.496 20.2541 91.7337 19.66 92.2092 19.0408L103.321 4.86932L104.622 3.30029C106.174 1.46767 107.192 0.551361 107.675 0.551361C108.351 0.551361 108.993 0.722908 109.602 1.066C110.145 1.36725 110.453 1.66014 110.528 1.94466C110.562 2.05344 110.491 2.55971 110.316 3.46347L109.878 5.83584C109.386 8.48017 109.139 10.1873 109.139 10.9571C109.139 11.7186 109.227 12.0994 109.402 12.0994C109.969 12.0994 111.062 11.1663 112.681 9.30025L116.735 4.42999C117.628 3.40071 118.22 2.81494 118.512 2.67268C118.595 2.63084 118.716 2.60992 118.875 2.60992C119.033 2.60992 119.208 2.63084 119.4 2.67268C119.6 2.71452 119.801 2.76892 120.001 2.83586C120.209 2.90281 120.41 2.9823 120.601 3.07435C120.793 3.1664 120.964 3.26264 121.115 3.36305C121.44 3.58063 121.598 3.76054 121.59 3.9028C121.59 4.03669 121.557 4.33376 121.49 4.79401C121.423 5.24588 121.34 5.79818 121.24 6.4509C120.547 10.7772 120.184 13.2877 120.151 13.9822C120.126 14.6768 120.197 15.1119 120.364 15.2876C120.539 15.4634 120.793 15.5512 121.127 15.5512C121.736 15.5512 122.62 15.1872 123.78 14.4592C124.564 13.9655 125.21 13.7186 125.719 13.7186C126.237 13.7186 126.495 13.9655 126.495 14.4592C126.495 14.9697 126.22 15.5889 125.669 16.3169C124.877 17.3713 123.692 18.3253 122.116 19.1788C120.789 19.8901 119.53 20.2458 118.337 20.2458C116.385 20.2458 115.409 18.9529 115.409 16.3671Z" fill="#FBA403"/>
<path d="M131.35 14.0826C131.35 14.4676 131.605 14.66 132.114 14.66C133.148 14.66 134.908 13.3672 137.394 10.7814L138.608 9.55129C139.434 8.73958 139.98 8.33373 140.247 8.33373C140.514 8.33373 140.752 8.37975 140.96 8.4718C141.169 8.56385 141.352 8.681 141.511 8.82326C141.836 9.11615 141.999 9.42995 141.999 9.76468C141.999 10.091 141.961 10.455 141.886 10.8567C141.82 11.25 141.711 11.6935 141.561 12.1873C141.286 13.1077 140.789 14.342 140.072 15.8902L139.559 16.9947L141.686 15.0617L146.041 11.3212C146.483 10.9864 146.85 10.8191 147.142 10.8191C147.776 10.8191 148.093 11.1245 148.093 11.7354C148.093 12.363 147.684 13.1705 146.866 14.1579C146.616 14.4676 146.345 14.7563 146.053 15.0241L143.1 17.5973L137.344 22.4801C136.835 22.9236 136.451 23.275 136.193 23.5344C135.884 24.0365 135.642 24.4089 135.467 24.6516C135.3 24.9026 135.133 25.1662 134.967 25.4424C134.8 25.7269 134.637 25.9696 134.479 26.1704C134.136 26.6055 133.794 26.8231 133.452 26.8231C133.094 26.8231 132.748 26.6767 132.414 26.3838C131.797 25.8399 131.488 25.3545 131.488 24.9277C131.488 24.501 131.605 24.0031 131.838 23.434C132.072 22.8734 132.376 22.229 132.752 21.501L135.404 16.5931C134.128 17.7479 133.127 18.5136 132.401 18.8901C131.676 19.2583 131.062 19.501 130.562 19.6182C130.07 19.7437 129.544 19.8064 128.985 19.8064C128.435 19.8064 127.951 19.6893 127.534 19.455C127.117 19.229 126.77 18.9236 126.495 18.5387C125.961 17.7772 125.694 16.7855 125.694 15.5638C125.694 14.2667 126.02 12.9864 126.67 11.7228C127.296 10.4843 128.122 9.48853 129.148 8.7354C130.232 7.93206 131.346 7.53039 132.489 7.53039C133.632 7.53039 134.203 7.97808 134.203 8.87347C134.203 9.43414 133.728 10.2668 132.777 11.3714C131.826 12.4676 131.35 13.3713 131.35 14.0826Z" fill="#FBA403"/>
</g>
<rect id="Rectangle 1" x="136.263" y="55.7708" width="6.21265" height="5.96432" fill="#FBA403"/>
<rect id="Rectangle 2" x="130.05" y="61.7353" width="6.21265" height="5.96429" fill="#FBA403"/>
<rect id="Rectangle 3" x="136.263" y="67.6489" width="6.21265" height="5.96432" fill="#FBA403"/>
<rect id="Rectangle 4" x="130.05" y="73.6133" width="6.21265" height="5.96432" fill="#FBA403"/>
<path id="Rectangle 5 (Stroke)" fill-rule="evenodd" clip-rule="evenodd" d="M49.2405 12.9018C40.4463 12.9018 32.5552 18.3206 29.3731 26.5445L6.31575 86.1361C0.894166 100.148 11.1995 115.249 26.1831 115.249H222.825C237.808 115.249 248.114 100.148 242.692 86.1361L219.635 26.5445C216.453 18.3205 208.561 12.9018 199.767 12.9018H163.488V8.15113H199.767C210.516 8.15113 220.16 14.774 224.05 24.8256L247.107 84.4172C253.733 101.543 241.138 120 222.825 120H26.1831C7.86979 120 -4.72561 101.543 1.90078 84.4172L24.9581 24.8256C28.8473 14.7741 38.492 8.15113 49.2405 8.15113H80.9332V12.9018H49.2405Z" fill="#FBA403"/>
</g>
</svg>
