<svg width="38" height="38" viewBox="0 0 38 38" fill="none" xmlns="http://www.w3.org/2000/svg">
<path d="M19.1886 1.59448C9.49362 1.59448 1.63452 9.45357 1.63452 19.1485C1.63452 28.8435 9.49362 36.7026 19.1886 36.7026C28.8835 36.7026 36.7426 28.8435 36.7426 19.1485C36.7426 9.45357 28.8835 1.59448 19.1886 1.59448ZM26.329 15.9742C26.3364 16.1241 26.3382 16.2741 26.3382 16.4203C26.3382 20.9917 22.8621 26.2597 16.5024 26.2597C14.6232 26.2629 12.7831 25.7231 11.2033 24.7055C11.4721 24.7384 11.7482 24.7512 12.028 24.7512C13.6481 24.7512 15.1383 24.2008 16.3214 23.2719C15.6004 23.2577 14.9019 23.019 14.323 22.589C13.7442 22.1589 13.3139 21.559 13.0922 20.8728C13.61 20.9713 14.1433 20.9507 14.6519 20.8125C13.8694 20.6543 13.1657 20.2302 12.6601 19.6124C12.1545 18.9945 11.8782 18.2207 11.878 17.4224V17.3803C12.3443 17.6381 12.8783 17.7954 13.4451 17.8137C12.7115 17.3253 12.1922 16.5752 11.9933 15.7166C11.7945 14.858 11.9312 13.9559 12.3754 13.1948C13.2439 14.2626 14.3269 15.1362 15.5545 15.759C16.782 16.3817 18.1266 16.7397 19.5013 16.8098C19.3265 16.068 19.4017 15.2892 19.7152 14.5945C20.0287 13.8999 20.5629 13.3282 21.2348 12.9685C21.9067 12.6088 22.6787 12.4811 23.4306 12.6054C24.1825 12.7296 24.8724 13.0988 25.3928 13.6556C26.1666 13.5025 26.9087 13.2186 27.5871 12.8163C27.3292 13.6174 26.7892 14.2977 26.0676 14.7308C26.753 14.6482 27.4223 14.4639 28.0534 14.184C27.5898 14.8787 27.0059 15.4849 26.329 15.9742Z" fill="white"/>
</svg>
